<?xml version="1.0" encoding="UTF-8" standalone="no"?>
<!-- Created with Inkscape (http://www.inkscape.org/) -->

<svg
   xmlns:dc="http://purl.org/dc/elements/1.1/"
   xmlns:cc="http://creativecommons.org/ns#"
   xmlns:rdf="http://www.w3.org/1999/02/22-rdf-syntax-ns#"
   xmlns:svg="http://www.w3.org/2000/svg"
   xmlns="http://www.w3.org/2000/svg"
   xmlns:xlink="http://www.w3.org/1999/xlink"
   xmlns:sodipodi="http://sodipodi.sourceforge.net/DTD/sodipodi-0.dtd"
   xmlns:inkscape="http://www.inkscape.org/namespaces/inkscape"
   version="1.1"
   width="64"
   height="22"
   id="svg3273"
   inkscape:version="0.48.1 r9760"
   sodipodi:docname="toggle-off-us.svg">
  <sodipodi:namedview
     pagecolor="#ffffff"
     bordercolor="#666666"
     borderopacity="1"
     objecttolerance="10"
     gridtolerance="10"
     guidetolerance="10"
     inkscape:pageopacity="0"
     inkscape:pageshadow="2"
     inkscape:window-width="1024"
     inkscape:window-height="711"
     id="namedview57"
     showgrid="false"
     inkscape:zoom="7.796875"
     inkscape:cx="23.394957"
     inkscape:cy="21.170792"
     inkscape:window-x="0"
     inkscape:window-y="26"
     inkscape:window-maximized="1"
     inkscape:current-layer="svg3273" />
  <defs
     id="defs3275">
    <linearGradient
       id="linearGradient3845">
      <stop
         style="stop-color:#717a87;stop-opacity:1"
         offset="0"
         id="stop3847" />
      <stop
         style="stop-color:#717a87;stop-opacity:1;"
         offset="1"
         id="stop3849" />
    </linearGradient>
    <linearGradient
       id="linearGradient4063">
      <stop
         id="stop4065"
         style="stop-color:#364150;stop-opacity:1;"
         offset="0" />
      <stop
         id="stop4067"
         style="stop-color:#515d6c;stop-opacity:1;"
         offset="1" />
    </linearGradient>
    <linearGradient
       id="linearGradient3990">
      <stop
         id="stop3992"
         style="stop-color:#ffffff;stop-opacity:1"
         offset="0" />
      <stop
         id="stop3994"
         style="stop-color:#ffffff;stop-opacity:0.29411766;"
         offset="1" />
    </linearGradient>
    <linearGradient
       id="linearGradient3984">
      <stop
         id="stop3986"
         style="stop-color:#3b3b3b;stop-opacity:1;"
         offset="0" />
      <stop
         id="stop3988"
         style="stop-color:#4e4e4e;stop-opacity:1;"
         offset="1" />
    </linearGradient>
    <linearGradient
       id="linearGradient4095">
      <stop
         id="stop4097"
         style="stop-color:#131313;stop-opacity:1"
         offset="0" />
      <stop
         id="stop4099"
         style="stop-color:#131313;stop-opacity:0"
         offset="1" />
    </linearGradient>
    <linearGradient
       x1="17.371481"
       y1="1.4948978"
       x2="17.306519"
       y2="4.8073978"
       id="linearGradient4170"
       xlink:href="#linearGradient3990"
       gradientUnits="userSpaceOnUse" />
    <linearGradient
       x1="-47.059258"
       y1="20.14957"
       x2="-46.978706"
       y2="1.0181593"
       id="linearGradient4173"
       xlink:href="#linearGradient3984"
       gradientUnits="userSpaceOnUse"
       gradientTransform="matrix(0.9757771,0,0,0.98628529,63.348591,0.09987579)" />
    <linearGradient
       x1="-17.784681"
       y1="9.8260183"
       x2="-11.504409"
       y2="9.6024895"
       id="linearGradient4177"
       xlink:href="#linearGradient4095"
       gradientUnits="userSpaceOnUse"
       gradientTransform="matrix(0.88797735,0,0,0.87902198,44.895626,2.3346908)" />
    <linearGradient
       x1="40.624996"
       y1="20.6875"
       x2="40.8125"
       y2="10.5"
       id="linearGradient4181"
       xlink:href="#linearGradient4063"
       gradientUnits="userSpaceOnUse" />
    <linearGradient
       inkscape:collect="always"
       xlink:href="#linearGradient3990"
       id="linearGradient3117"
       gradientUnits="userSpaceOnUse"
       x1="17.371481"
       y1="1.4948978"
       x2="17.306519"
       y2="4.8073978" />
    <linearGradient
       inkscape:collect="always"
       xlink:href="#linearGradient3984"
       id="linearGradient3124"
       gradientUnits="userSpaceOnUse"
       gradientTransform="matrix(0.9757771,0,0,0.98628529,63.348591,0.09987579)"
       x1="-47.059258"
       y1="20.14957"
       x2="-46.978706"
       y2="1.0181593" />
    <linearGradient
       inkscape:collect="always"
       xlink:href="#linearGradient4095"
       id="linearGradient3128"
       gradientUnits="userSpaceOnUse"
       gradientTransform="matrix(0.88797735,0,0,0.87902198,44.895626,2.3346908)"
       x1="-17.784681"
       y1="9.8260183"
       x2="-11.504409"
       y2="9.6024895" />
    <linearGradient
       inkscape:collect="always"
       xlink:href="#linearGradient3845"
       id="linearGradient3131"
       gradientUnits="userSpaceOnUse"
       x1="40.836437"
       y1="20.305082"
       x2="40.782879"
       y2="1.8095802" />
    <linearGradient
       inkscape:collect="always"
       xlink:href="#linearGradient4063"
       id="linearGradient3134"
       gradientUnits="userSpaceOnUse"
       x1="40.624996"
       y1="20.6875"
       x2="40.8125"
       y2="10.5" />
  </defs>
  <metadata
     id="metadata3278">
    <rdf:RDF>
      <cc:Work
         rdf:about="">
        <dc:format>image/svg+xml</dc:format>
        <dc:type
           rdf:resource="http://purl.org/dc/dcmitype/StillImage" />
        <dc:title />
      </cc:Work>
    </rdf:RDF>
  </metadata>
  <g
     id="g3904">
    <rect
       width="63.000004"
       height="19"
       rx="4"
       ry="4"
       x="0.49999601"
       y="1.5"
       id="rect17456"
       style="color:#000000;fill:url(#linearGradient3134);fill-opacity:1;stroke:#1a1a1a;stroke-width:0.99999994;stroke-linecap:round;stroke-linejoin:miter;stroke-miterlimit:4;stroke-opacity:1;stroke-dasharray:none;stroke-dashoffset:0;marker:none;visibility:visible;display:inline;overflow:visible;enable-background:accumulate" />
    <rect
       width="61.470325"
       height="17.097975"
       rx="2.9653778"
       ry="3.0449691"
       x="1.0965401"
       y="2.4950619"
       id="rect3963"
       style="color:#000000;fill:none;stroke:url(#linearGradient3131);stroke-width:0.93703973;stroke-linecap:round;stroke-linejoin:miter;stroke-miterlimit:4;stroke-opacity:1;stroke-dasharray:none;stroke-dashoffset:0;marker:none;visibility:visible;display:inline;overflow:visible;enable-background:accumulate" />
    <rect
       width="27.527298"
       height="17.580441"
       rx="3.5519094"
       ry="3.516088"
       x="6.4542465"
       y="2.0835137"
       id="rect4062"
       style="fill:url(#linearGradient3128);fill-opacity:1;stroke:none;display:inline" />
    <rect
       width="32.057007"
       height="21.6308"
       rx="4.1363883"
       ry="4.32616"
       x="0.13464338"
       y="0.066622458"
       id="rect4093"
       style="fill:#111111;fill-opacity:1;stroke:none;display:inline" />
    <rect
       width="30.24909"
       height="19.725706"
       rx="3.9031086"
       ry="3.9451411"
       x="1.02404"
       y="0.96162629"
       id="rect17458"
       style="fill:url(#linearGradient3124);fill-opacity:1;stroke:none;display:inline" />
    <g
       transform="translate(-1.7905145,0.25758252)"
       id="g4211">
      <path
         d="m 16.798265,5.2711496 a 1.1106291,1.1106291 0 1 1 -1e-6,-8.191e-4"
         transform="translate(-1.9397152,0.5097843)"
         id="path4205"
         style="opacity:0.64049587;fill:#000000;fill-opacity:1;stroke:none"
         inkscape:connector-curvature="0" />
      <path
         d="m 16.798265,5.2711496 a 1.1106291,1.1106291 0 1 1 -1e-6,-8.191e-4"
         transform="translate(-2.0281035,4.9277873)"
         id="path4207"
         style="opacity:0.64049587;fill:#060606;fill-opacity:1;stroke:none"
         inkscape:connector-curvature="0" />
      <path
         d="m 16.798265,5.2711496 a 1.1106291,1.1106291 0 1 1 -1e-6,-8.191e-4"
         transform="translate(-1.9397152,9.6803703)"
         id="path4209"
         style="opacity:0.64049587;fill:#090909;fill-opacity:1;stroke:none"
         inkscape:connector-curvature="0" />
    </g>
    <rect
       width="29.285889"
       height="18.841696"
       rx="3.7788243"
       ry="3.5183392"
       x="1.4148053"
       y="1.3865503"
       id="rect4145"
       style="opacity:0.19008262;fill:none;stroke:url(#linearGradient3117);stroke-width:0.96164936;stroke-opacity:1;display:inline" />
    <g
       id="text4331"
       style="font-size:11px;font-style:normal;font-variant:normal;font-weight:bold;font-stretch:normal;line-height:125%;letter-spacing:0px;word-spacing:0px;opacity:0.85087717;fill:#141414;fill-opacity:1;stroke:none;font-family:Aller;-inkscape-font-specification:Aller Bold">
      <path
         d="m 41.28764,15.436348 c -0.594004,0 -1.107337,-0.102667 -1.54,-0.308 -0.432669,-0.205333 -0.788335,-0.487666 -1.067,-0.847 -0.278668,-0.366665 -0.487668,-0.795665 -0.627,-1.287 -0.132001,-0.498664 -0.198001,-1.04133 -0.198,-1.628 -1e-6,-0.586662 0.066,-1.129328 0.198,-1.628 0.139332,-0.5059939 0.348332,-0.9423268 0.627,-1.309 0.278665,-0.3666594 0.634331,-0.6526591 1.067,-0.858 0.432663,-0.2053254 0.945996,-0.307992 1.54,-0.308 0.593995,8e-6 1.107328,0.1026746 1.54,0.308 0.43266,0.2053409 0.788327,0.4913406 1.067,0.858 0.278659,0.3666732 0.483993,0.8030061 0.616,1.309 0.139326,0.498672 0.208992,1.041338 0.209,1.628 -8e-6,0.58667 -0.06967,1.129336 -0.209,1.628 -0.132007,0.491335 -0.337341,0.920335 -0.616,1.287 -0.278673,0.359334 -0.63434,0.641667 -1.067,0.847 -0.432672,0.205333 -0.946005,0.308 -1.54,0.308 m 0,-1.342 c 1.136661,10e-7 1.704994,-0.909331 1.705,-2.728 -6e-6,-0.909328 -0.139339,-1.5913278 -0.418,-2.046 -0.271339,-0.4546602 -0.696672,-0.6819933 -1.276,-0.682 -1.151337,6.7e-6 -1.727003,0.9093391 -1.727,2.728 -3e-6,1.818669 0.571997,2.728001 1.716,2.728"
         id="path4496"
         style="fill:#141414;fill-opacity:1"
         inkscape:connector-curvature="0" />
      <path
         d="m 46.056827,7.395348 4.488,0 c 0.044,0.2200077 0.066,0.4436741 0.066,0.671 -5e-6,0.242007 -0.02201,0.4730068 -0.066,0.693 l -2.882,0 0,1.859 2.288,0 c 0.044,0.234671 0.066,0.462004 0.066,0.682 -5e-6,0.23467 -0.02201,0.46567 -0.066,0.693 l -2.288,0 0,3.311 c -0.278669,0.044 -0.542668,0.066 -0.792,0.066 -0.271335,0 -0.542668,-0.022 -0.814,-0.066 l 0,-7.909"
         id="path4498"
         style="fill:#141414;fill-opacity:1"
         inkscape:connector-curvature="0" />
      <path
         d="m 51.642765,7.395348 4.488,0 c 0.04399,0.2200077 0.06599,0.4436741 0.066,0.671 -6e-6,0.242007 -0.02201,0.4730068 -0.066,0.693 l -2.882,0 0,1.859 2.288,0 c 0.04399,0.234671 0.066,0.462004 0.066,0.682 -5e-6,0.23467 -0.02201,0.46567 -0.066,0.693 l -2.288,0 0,3.311 c -0.278669,0.044 -0.542669,0.066 -0.792,0.066 -0.271335,0 -0.542668,-0.022 -0.814,-0.066 l 0,-7.909"
         id="path4500"
         style="fill:#141414;fill-opacity:1"
         inkscape:connector-curvature="0" />
    </g>
    <g
       id="text4327"
       style="font-size:11px;font-style:normal;font-variant:normal;font-weight:bold;font-stretch:normal;line-height:125%;letter-spacing:0px;word-spacing:0px;fill:#b9c7da;fill-opacity:1;stroke:none;font-family:Aller;-inkscape-font-specification:Aller Bold">
      <path
         d="m 41.28764,14.821442 c -0.594004,0 -1.107337,-0.102667 -1.54,-0.308 -0.432669,-0.205333 -0.788335,-0.487666 -1.067,-0.847 -0.278668,-0.366666 -0.487668,-0.795665 -0.627,-1.287 -0.132001,-0.498664 -0.198001,-1.04133 -0.198,-1.628 -1e-6,-0.586662 0.066,-1.1293286 0.198,-1.6280003 0.139332,-0.5059939 0.348332,-0.9423268 0.627,-1.309 0.278665,-0.3666594 0.634331,-0.6526592 1.067,-0.858 0.432663,-0.2053254 0.945996,-0.307992 1.54,-0.308 0.593995,8e-6 1.107328,0.1026746 1.54,0.308 0.43266,0.2053408 0.788327,0.4913406 1.067,0.858 0.278659,0.3666732 0.483993,0.8030061 0.616,1.309 0.139326,0.4986717 0.208992,1.0413383 0.209,1.6280003 -8e-6,0.58667 -0.06967,1.129336 -0.209,1.628 -0.132007,0.491335 -0.337341,0.920334 -0.616,1.287 -0.278673,0.359334 -0.63434,0.641667 -1.067,0.847 -0.432672,0.205333 -0.946005,0.308 -1.54,0.308 m 0,-1.342 c 1.136661,10e-7 1.704994,-0.909332 1.705,-2.728 -6e-6,-0.9093288 -0.139339,-1.5913281 -0.418,-2.0460003 -0.271339,-0.4546602 -0.696672,-0.6819934 -1.276,-0.682 -1.151337,6.6e-6 -1.727003,0.9093391 -1.727,2.7280003 -3e-6,1.818668 0.571997,2.728001 1.716,2.728"
         id="path4489"
         style="fill:#b9c7da;fill-opacity:1"
         inkscape:connector-curvature="0" />
      <path
         d="m 46.056827,6.7804417 4.488,0 c 0.044,0.2200077 0.066,0.4436741 0.066,0.671 -5e-6,0.242007 -0.02201,0.4730067 -0.066,0.693 l -2.882,0 0,1.8590003 2.288,0 c 0.044,0.234671 0.066,0.462004 0.066,0.682 -5e-6,0.23467 -0.02201,0.46567 -0.066,0.693 l -2.288,0 0,3.311 c -0.278669,0.044 -0.542668,0.066 -0.792,0.066 -0.271335,0 -0.542668,-0.022 -0.814,-0.066 l 0,-7.9090003"
         id="path4491"
         style="fill:#b9c7da;fill-opacity:1"
         inkscape:connector-curvature="0" />
      <path
         d="m 51.642765,6.7804417 4.488,0 c 0.04399,0.2200077 0.06599,0.4436741 0.066,0.671 -6e-6,0.242007 -0.02201,0.4730067 -0.066,0.693 l -2.882,0 0,1.8590003 2.288,0 c 0.04399,0.234671 0.066,0.462004 0.066,0.682 -5e-6,0.23467 -0.02201,0.46567 -0.066,0.693 l -2.288,0 0,3.311 c -0.278669,0.044 -0.542669,0.066 -0.792,0.066 -0.271335,0 -0.542668,-0.022 -0.814,-0.066 l 0,-7.9090003"
         id="path4493"
         style="fill:#b9c7da;fill-opacity:1"
         inkscape:connector-curvature="0" />
    </g>
    <path
       d="m 19.829744,6.1269044 a 1.1106291,1.1106291 0 1 1 -1e-6,-8.191e-4"
       id="path3813"
       style="fill:#000000;fill-opacity:1;stroke:none"
       inkscape:connector-curvature="0" />
    <g
       transform="translate(0.375,0.16919417)"
       id="g4216">
      <path
         d="m 16.798265,5.2711496 a 1.1106291,1.1106291 0 1 1 -1e-6,-8.191e-4"
         transform="translate(2.0819546,0.686561)"
         id="path4199"
         style="opacity:0.64049587;fill:#000000;fill-opacity:1;stroke:none"
         inkscape:connector-curvature="0" />
      <path
         d="m 16.798265,5.2711496 a 1.1106291,1.1106291 0 1 1 -1e-6,-8.191e-4"
         transform="translate(1.9935663,5.104564)"
         id="path4201"
         style="opacity:0.64049587;fill:#060606;fill-opacity:1;stroke:none"
         inkscape:connector-curvature="0" />
      <path
         d="m 16.798265,5.2711496 a 1.1106291,1.1106291 0 1 1 -1e-6,-8.191e-4"
         transform="translate(2.0819546,9.857147)"
         id="path4203"
         style="opacity:0.64049587;fill:#090909;fill-opacity:1;stroke:none"
         inkscape:connector-curvature="0" />
    </g>
    <path
       d="m 19.741356,10.544908 a 1.1106291,1.1106291 0 1 1 -1e-6,-8.19e-4"
       id="path3815"
       style="opacity:0.89669417;fill:#060606;fill-opacity:1;stroke:none"
       inkscape:connector-curvature="0" />
    <path
       d="m 20.329744,6.1894044 a 1.1106291,1.1106291 0 1 1 -1e-6,-8.191e-4"
       id="path3805"
       style="fill:#d4d4d4;fill-opacity:1;stroke:none"
       inkscape:connector-curvature="0" />
    <path
       d="m 19.829744,15.297491 a 1.1106291,1.1106291 0 1 1 -1e-6,-8.19e-4"
       id="path3817"
       style="opacity:0.89669417;fill:#090909;fill-opacity:1;stroke:none"
       inkscape:connector-curvature="0" />
    <path
       d="m 20.335106,10.544908 a 1.1106291,1.1106291 0 1 1 -1e-6,-8.19e-4"
       id="path3807"
       style="fill:#d4d4d4;fill-opacity:1;stroke:none"
       inkscape:connector-curvature="0" />
    <path
       d="m 20.329744,15.359991 a 1.1106291,1.1106291 0 1 1 -1e-6,-8.19e-4"
       id="path3809"
       style="fill:#d4d4d4;fill-opacity:1;stroke:none"
       inkscape:connector-curvature="0" />
    <g
       transform="translate(0.375,0.125)"
       id="g4221">
      <path
         d="m 16.798265,5.2711496 a 1.1106291,1.1106291 0 1 1 -1e-6,-8.191e-4"
         transform="translate(-3.6024046,0.6682548)"
         id="path4010"
         style="opacity:0.89669417;fill:#000000;fill-opacity:1;stroke:none"
         inkscape:connector-curvature="0" />
      <path
         d="m 16.798265,5.2711496 a 1.1106291,1.1106291 0 1 1 -1e-6,-8.191e-4"
         transform="translate(-3.6907929,5.0862581)"
         id="path4012"
         style="opacity:0.89669417;fill:#060606;fill-opacity:1;stroke:none"
         inkscape:connector-curvature="0" />
      <path
         d="m 16.798265,5.2711496 a 1.1106291,1.1106291 0 1 1 -1e-6,-8.191e-4"
         transform="translate(-3.6024046,9.8388407)"
         id="path4016"
         style="opacity:0.89669417;fill:#090909;fill-opacity:1;stroke:none"
         inkscape:connector-curvature="0" />
    </g>
    <path
       d="m 14.07086,6.1269044 a 1.1106291,1.1106291 0 1 1 -10e-7,-8.191e-4"
       id="path4014"
       style="fill:#d4d4d4;fill-opacity:1;stroke:none"
       inkscape:connector-curvature="0" />
    <path
       d="m 14.044972,10.513658 a 1.1106291,1.1106291 0 1 1 -10e-7,-8.19e-4"
       id="path4018"
       style="fill:#d4d4d4;fill-opacity:1;stroke:none"
       inkscape:connector-curvature="0" />
    <path
       d="m 14.07086,15.297491 a 1.1106291,1.1106291 0 1 1 -10e-7,-8.19e-4"
       id="path4022"
       style="fill:#d4d4d4;fill-opacity:1;stroke:none"
       inkscape:connector-curvature="0" />
  </g>
</svg>
