<?xml version="1.0" encoding="UTF-8" standalone="no"?>
<!-- Created with Inkscape (http://www.inkscape.org/) -->

<svg
   xmlns:dc="http://purl.org/dc/elements/1.1/"
   xmlns:cc="http://creativecommons.org/ns#"
   xmlns:rdf="http://www.w3.org/1999/02/22-rdf-syntax-ns#"
   xmlns:svg="http://www.w3.org/2000/svg"
   xmlns="http://www.w3.org/2000/svg"
   xmlns:xlink="http://www.w3.org/1999/xlink"
   xmlns:sodipodi="http://sodipodi.sourceforge.net/DTD/sodipodi-0.dtd"
   xmlns:inkscape="http://www.inkscape.org/namespaces/inkscape"
   version="1.1"
   width="64"
   height="22"
   id="svg3273"
   inkscape:version="0.48.3.1 r9886"
   sodipodi:docname="toggle-off-intl.svg">
  <sodipodi:namedview
     pagecolor="#ffffff"
     bordercolor="#666666"
     borderopacity="1"
     objecttolerance="10"
     gridtolerance="10"
     guidetolerance="10"
     inkscape:pageopacity="0"
     inkscape:pageshadow="2"
     inkscape:window-width="796"
     inkscape:window-height="842"
     id="namedview68"
     showgrid="false"
     inkscape:zoom="7.796875"
     inkscape:cx="20.118983"
     inkscape:cy="24.277223"
     inkscape:window-x="0"
     inkscape:window-y="27"
     inkscape:window-maximized="0"
     inkscape:current-layer="svg3273" />
  <defs
     id="defs3275">
    <linearGradient
       id="linearGradient3853">
      <stop
         style="stop-color:#717a87;stop-opacity:0.78039217;"
         offset="0"
         id="stop3855" />
      <stop
         style="stop-color:#717a87;stop-opacity:0.94117647;"
         offset="1"
         id="stop3857" />
    </linearGradient>
    <linearGradient
       id="linearGradient4063">
      <stop
         id="stop4065"
         style="stop-color:#364150;stop-opacity:1;"
         offset="0" />
      <stop
         id="stop4067"
         style="stop-color:#515d6c;stop-opacity:1;"
         offset="1" />
    </linearGradient>
    <linearGradient
       id="linearGradient3990">
      <stop
         id="stop3992"
         style="stop-color:#ffffff;stop-opacity:1"
         offset="0" />
      <stop
         id="stop3994"
         style="stop-color:#ffffff;stop-opacity:0.29411766;"
         offset="1" />
    </linearGradient>
    <linearGradient
       id="linearGradient3984">
      <stop
         id="stop3986"
         style="stop-color:#3b3b3b;stop-opacity:1;"
         offset="0" />
      <stop
         id="stop3988"
         style="stop-color:#4e4e4e;stop-opacity:1;"
         offset="1" />
    </linearGradient>
    <linearGradient
       id="linearGradient4095">
      <stop
         id="stop4097"
         style="stop-color:#131313;stop-opacity:1"
         offset="0" />
      <stop
         id="stop4099"
         style="stop-color:#131313;stop-opacity:0"
         offset="1" />
    </linearGradient>
    <linearGradient
       x1="17.371481"
       y1="1.4948978"
       x2="17.306519"
       y2="4.8073978"
       id="linearGradient4561"
       xlink:href="#linearGradient3990"
       gradientUnits="userSpaceOnUse"
       gradientTransform="translate(-63.999996,0)" />
    <linearGradient
       x1="-47.059258"
       y1="20.14957"
       x2="-46.978706"
       y2="1.0181593"
       id="linearGradient4568"
       xlink:href="#linearGradient3984"
       gradientUnits="userSpaceOnUse"
       gradientTransform="matrix(0.9757771,0,0,0.98628529,-0.651405,0.09987579)" />
    <linearGradient
       x1="-17.784681"
       y1="9.8260183"
       x2="-11.504409"
       y2="9.6024895"
       id="linearGradient4572"
       xlink:href="#linearGradient4095"
       gradientUnits="userSpaceOnUse"
       gradientTransform="matrix(0.88797735,0,0,0.87902198,-19.10437,2.3346908)" />
    <linearGradient
       x1="40.624996"
       y1="20.6875"
       x2="40.8125"
       y2="10.5"
       id="linearGradient4576"
       xlink:href="#linearGradient4063"
       gradientUnits="userSpaceOnUse"
       gradientTransform="translate(-63.999996,0)" />
    <linearGradient
       x1="-17.784681"
       y1="9.8260183"
       x2="-11.504409"
       y2="9.6024895"
       id="linearGradient4101"
       xlink:href="#linearGradient4095-3"
       gradientUnits="userSpaceOnUse"
       gradientTransform="matrix(0.88797735,0,0,0.87902198,-19.10437,2.3346908)" />
    <linearGradient
       x1="-47.059258"
       y1="20.14957"
       x2="-46.978706"
       y2="1.0181593"
       id="linearGradient4060"
       xlink:href="#linearGradient4054-9"
       gradientUnits="userSpaceOnUse"
       gradientTransform="matrix(0.9757771,0,0,0.98628529,-0.65140489,0.09987579)" />
    <linearGradient
       id="linearGradient4054-9">
      <stop
         id="stop4056-6"
         style="stop-color:#cdcdcd;stop-opacity:1"
         offset="0" />
      <stop
         id="stop4058-4"
         style="stop-color:#f9f9f9;stop-opacity:1"
         offset="1" />
    </linearGradient>
    <linearGradient
       id="linearGradient4095-3">
      <stop
         id="stop4097-1"
         style="stop-color:#131313;stop-opacity:1"
         offset="0" />
      <stop
         id="stop4099-8"
         style="stop-color:#131313;stop-opacity:0"
         offset="1" />
    </linearGradient>
    <linearGradient
       x1="-47.059258"
       y1="20.14957"
       x2="-46.978706"
       y2="1.0181593"
       id="linearGradient4868"
       xlink:href="#linearGradient4054-9"
       gradientUnits="userSpaceOnUse"
       gradientTransform="matrix(0.9757771,0,0,0.98628529,-3.0264068,-27.657147)" />
    <linearGradient
       x1="-17.784681"
       y1="9.8260183"
       x2="-11.504409"
       y2="9.6024895"
       id="linearGradient4872"
       xlink:href="#linearGradient4095-3"
       gradientUnits="userSpaceOnUse"
       gradientTransform="matrix(0.88797735,0,0,0.87902198,-21.479372,-25.422332)" />
    <linearGradient
       x1="17.371481"
       y1="1.4948978"
       x2="17.306519"
       y2="4.8073978"
       id="linearGradient4909"
       xlink:href="#linearGradient3990"
       gradientUnits="userSpaceOnUse"
       gradientTransform="translate(-63.999996,0)" />
    <linearGradient
       x1="-47.059258"
       y1="20.14957"
       x2="-46.978706"
       y2="1.0181593"
       id="linearGradient4916"
       xlink:href="#linearGradient3984"
       gradientUnits="userSpaceOnUse"
       gradientTransform="matrix(0.9757771,0,0,0.98628529,-0.651405,0.09987579)" />
    <linearGradient
       x1="-17.784681"
       y1="9.8260183"
       x2="-11.504409"
       y2="9.6024895"
       id="linearGradient4920"
       xlink:href="#linearGradient4095"
       gradientUnits="userSpaceOnUse"
       gradientTransform="matrix(0.88797735,0,0,0.87902198,-19.10437,2.3346908)" />
    <linearGradient
       x1="40.624996"
       y1="20.6875"
       x2="40.8125"
       y2="10.5"
       id="linearGradient4924"
       xlink:href="#linearGradient4063"
       gradientUnits="userSpaceOnUse"
       gradientTransform="translate(-63.999996,0)" />
    <linearGradient
       inkscape:collect="always"
       xlink:href="#linearGradient3990"
       id="linearGradient3836"
       gradientUnits="userSpaceOnUse"
       gradientTransform="translate(-63.999996,0)"
       x1="17.371481"
       y1="1.4948978"
       x2="17.306519"
       y2="4.8073978" />
    <linearGradient
       inkscape:collect="always"
       xlink:href="#linearGradient3984"
       id="linearGradient3843"
       gradientUnits="userSpaceOnUse"
       gradientTransform="matrix(0.9757771,0,0,0.98628529,-0.651405,0.09987579)"
       x1="-47.059258"
       y1="20.14957"
       x2="-46.978706"
       y2="1.0181593" />
    <linearGradient
       inkscape:collect="always"
       xlink:href="#linearGradient4095"
       id="linearGradient3847"
       gradientUnits="userSpaceOnUse"
       gradientTransform="matrix(0.88797735,0,0,0.87902198,-19.10437,2.3346908)"
       x1="-17.784681"
       y1="9.8260183"
       x2="-11.504409"
       y2="9.6024895" />
    <linearGradient
       inkscape:collect="always"
       xlink:href="#linearGradient4063"
       id="linearGradient3851"
       gradientUnits="userSpaceOnUse"
       gradientTransform="translate(-63.999996,0)"
       x1="40.624996"
       y1="20.6875"
       x2="40.8125"
       y2="10.5" />
    <linearGradient
       inkscape:collect="always"
       xlink:href="#linearGradient3853"
       id="linearGradient3859"
       x1="-18.026453"
       y1="20.022465"
       x2="-17.833149"
       y2="2.1563263"
       gradientUnits="userSpaceOnUse" />
    <linearGradient
       inkscape:collect="always"
       xlink:href="#linearGradient3990"
       id="linearGradient3844"
       gradientUnits="userSpaceOnUse"
       gradientTransform="translate(-63.999996,0)"
       x1="17.371481"
       y1="1.4948978"
       x2="17.306519"
       y2="4.8073978" />
    <linearGradient
       inkscape:collect="always"
       xlink:href="#linearGradient3984"
       id="linearGradient3852"
       gradientUnits="userSpaceOnUse"
       gradientTransform="matrix(0.9757771,0,0,0.98628529,-0.651405,0.09987579)"
       x1="-47.059258"
       y1="20.14957"
       x2="-46.978706"
       y2="1.0181593" />
    <linearGradient
       inkscape:collect="always"
       xlink:href="#linearGradient4095"
       id="linearGradient3856"
       gradientUnits="userSpaceOnUse"
       gradientTransform="matrix(0.88797735,0,0,0.87902198,-19.10437,2.3346908)"
       x1="-17.784681"
       y1="9.8260183"
       x2="-11.504409"
       y2="9.6024895" />
    <linearGradient
       inkscape:collect="always"
       xlink:href="#linearGradient3853"
       id="linearGradient3860"
       gradientUnits="userSpaceOnUse"
       x1="-18.026453"
       y1="20.022465"
       x2="-17.833149"
       y2="2.1563263" />
    <linearGradient
       inkscape:collect="always"
       xlink:href="#linearGradient4063"
       id="linearGradient3863"
       gradientUnits="userSpaceOnUse"
       gradientTransform="translate(-63.999996,0)"
       x1="40.624996"
       y1="20.6875"
       x2="40.8125"
       y2="10.5" />
    <linearGradient
       inkscape:collect="always"
       xlink:href="#linearGradient3990"
       id="linearGradient3080"
       gradientUnits="userSpaceOnUse"
       gradientTransform="translate(-63.999996,0)"
       x1="17.371481"
       y1="1.4948978"
       x2="17.306519"
       y2="4.8073978" />
    <linearGradient
       inkscape:collect="always"
       xlink:href="#linearGradient3984"
       id="linearGradient3087"
       gradientUnits="userSpaceOnUse"
       gradientTransform="matrix(0.9757771,0,0,0.98628529,-0.651405,0.09987579)"
       x1="-47.059258"
       y1="20.14957"
       x2="-46.978706"
       y2="1.0181593" />
    <linearGradient
       inkscape:collect="always"
       xlink:href="#linearGradient4095"
       id="linearGradient3091"
       gradientUnits="userSpaceOnUse"
       gradientTransform="matrix(0.88797735,0,0,0.87902198,-19.10437,2.3346908)"
       x1="-17.784681"
       y1="9.8260183"
       x2="-11.504409"
       y2="9.6024895" />
    <linearGradient
       inkscape:collect="always"
       xlink:href="#linearGradient3853"
       id="linearGradient3094"
       gradientUnits="userSpaceOnUse"
       x1="-18.026453"
       y1="20.022465"
       x2="-17.833149"
       y2="2.1563263" />
    <linearGradient
       inkscape:collect="always"
       xlink:href="#linearGradient4063"
       id="linearGradient3097"
       gradientUnits="userSpaceOnUse"
       gradientTransform="translate(-63.999996,0)"
       x1="40.624996"
       y1="20.6875"
       x2="40.8125"
       y2="10.5" />
    <linearGradient
       inkscape:collect="always"
       xlink:href="#linearGradient3990"
       id="linearGradient3085"
       gradientUnits="userSpaceOnUse"
       gradientTransform="translate(-63.999996,0)"
       x1="17.371481"
       y1="1.4948978"
       x2="17.306519"
       y2="4.8073978" />
    <linearGradient
       inkscape:collect="always"
       xlink:href="#linearGradient3984"
       id="linearGradient3092"
       gradientUnits="userSpaceOnUse"
       gradientTransform="matrix(0.9757771,0,0,0.98628529,-0.651405,0.09987579)"
       x1="-47.059258"
       y1="20.14957"
       x2="-46.978706"
       y2="1.0181593" />
    <linearGradient
       inkscape:collect="always"
       xlink:href="#linearGradient4095"
       id="linearGradient3096"
       gradientUnits="userSpaceOnUse"
       gradientTransform="matrix(0.88797735,0,0,0.87902198,-19.10437,2.3346908)"
       x1="-17.784681"
       y1="9.8260183"
       x2="-11.504409"
       y2="9.6024895" />
    <linearGradient
       inkscape:collect="always"
       xlink:href="#linearGradient3853"
       id="linearGradient3099"
       gradientUnits="userSpaceOnUse"
       x1="-18.026453"
       y1="20.022465"
       x2="-17.833149"
       y2="2.1563263" />
    <linearGradient
       inkscape:collect="always"
       xlink:href="#linearGradient4063"
       id="linearGradient3102"
       gradientUnits="userSpaceOnUse"
       gradientTransform="translate(-63.999996,0)"
       x1="40.624996"
       y1="20.6875"
       x2="40.8125"
       y2="10.5" />
    <linearGradient
       inkscape:collect="always"
       xlink:href="#linearGradient4063"
       id="linearGradient3147"
       gradientUnits="userSpaceOnUse"
       gradientTransform="translate(-63.999996,0)"
       x1="40.624996"
       y1="20.6875"
       x2="40.8125"
       y2="10.5" />
    <linearGradient
       inkscape:collect="always"
       xlink:href="#linearGradient3853"
       id="linearGradient3149"
       gradientUnits="userSpaceOnUse"
       x1="-18.026453"
       y1="20.022465"
       x2="-17.833149"
       y2="2.1563263" />
    <linearGradient
       inkscape:collect="always"
       xlink:href="#linearGradient4095"
       id="linearGradient3151"
       gradientUnits="userSpaceOnUse"
       gradientTransform="matrix(0.88797735,0,0,0.87902198,-19.10437,2.3346908)"
       x1="-17.784681"
       y1="9.8260183"
       x2="-11.504409"
       y2="9.6024895" />
    <linearGradient
       inkscape:collect="always"
       xlink:href="#linearGradient3984"
       id="linearGradient3153"
       gradientUnits="userSpaceOnUse"
       gradientTransform="matrix(0.9757771,0,0,0.98628529,-0.651405,0.09987579)"
       x1="-47.059258"
       y1="20.14957"
       x2="-46.978706"
       y2="1.0181593" />
    <linearGradient
       inkscape:collect="always"
       xlink:href="#linearGradient3990"
       id="linearGradient3155"
       gradientUnits="userSpaceOnUse"
       gradientTransform="translate(-63.999996,0)"
       x1="17.371481"
       y1="1.4948978"
       x2="17.306519"
       y2="4.8073978" />
  </defs>
  <metadata
     id="metadata3278">
    <rdf:RDF>
      <cc:Work
         rdf:about="">
        <dc:format>image/svg+xml</dc:format>
        <dc:type
           rdf:resource="http://purl.org/dc/dcmitype/StillImage" />
        <dc:title />
      </cc:Work>
    </rdf:RDF>
  </metadata>
  <g
     id="g3117"
     transform="matrix(-1,0,0,1,63.999996,0)">
    <rect
       width="63.000004"
       height="19"
       rx="4"
       ry="4"
       x="-63.5"
       y="1.5"
       transform="scale(-1,1)"
       id="rect17456"
       style="color:#000000;fill:url(#linearGradient3147);fill-opacity:1;stroke:#1a1a1a;stroke-width:0.99999994;stroke-linecap:round;stroke-linejoin:miter;stroke-miterlimit:4;stroke-opacity:1;stroke-dasharray:none;stroke-dashoffset:0;marker:none;visibility:visible;display:inline;overflow:visible;enable-background:accumulate" />
    <rect
       width="61.470325"
       height="17.097975"
       rx="2.9653778"
       ry="3.0449691"
       x="-62.903458"
       y="2.4950619"
       transform="scale(-1,1)"
       id="rect3963"
       style="color:#000000;fill:none;stroke:url(#linearGradient3149);stroke-width:0.93703973;stroke-linecap:round;stroke-linejoin:miter;stroke-miterlimit:4;stroke-opacity:1;stroke-dasharray:none;stroke-dashoffset:0;marker:none;visibility:visible;display:inline;overflow:visible;enable-background:accumulate" />
    <rect
       width="27.527298"
       height="17.580441"
       rx="3.5519094"
       ry="3.516088"
       x="-57.54575"
       y="2.0835137"
       transform="scale(-1,1)"
       id="rect4062"
       style="fill:url(#linearGradient3151);fill-opacity:1;stroke:none;display:inline" />
    <rect
       width="32.057007"
       height="21.6308"
       rx="4.1363883"
       ry="4.32616"
       x="-63.865353"
       y="0.066622458"
       transform="scale(-1,1)"
       id="rect4093"
       style="fill:#111111;fill-opacity:1;stroke:none;display:inline" />
    <rect
       width="30.24909"
       height="19.725706"
       rx="3.9031086"
       ry="3.9451411"
       x="-62.975956"
       y="0.96162629"
       transform="scale(-1,1)"
       id="rect17458"
       style="fill:url(#linearGradient3153);fill-opacity:1;stroke:none;display:inline" />
    <path
       inkscape:connector-curvature="0"
       style="opacity:0.64049587;fill:#000000;fill-opacity:1;stroke:none"
       id="path4205"
       d="m 50.93196,6.0385164 a 1.1106291,1.1106291 0 1 0 1e-6,-8.191e-4" />
    <path
       inkscape:connector-curvature="0"
       style="opacity:0.64049587;fill:#060606;fill-opacity:1;stroke:none"
       id="path4207"
       d="m 51.020348,10.456519 a 1.1106291,1.1106291 0 1 0 1e-6,-8.19e-4" />
    <path
       inkscape:connector-curvature="0"
       style="opacity:0.64049587;fill:#090909;fill-opacity:1;stroke:none"
       id="path4209"
       d="m 50.93196,15.209102 a 1.1106291,1.1106291 0 1 0 1e-6,-8.19e-4" />
    <rect
       width="29.285889"
       height="18.841696"
       rx="3.7788243"
       ry="3.5183392"
       x="-62.58519"
       y="1.3865503"
       transform="scale(-1,1)"
       id="rect4145"
       style="opacity:0.19008262;fill:none;stroke:url(#linearGradient3155);stroke-width:0.96164936;stroke-opacity:1;display:inline" />
    <path
       d="m 44.170252,6.1269044 a 1.1106291,1.1106291 0 1 0 1e-6,-8.191e-4"
       id="path3813"
       style="fill:#000000;fill-opacity:1;stroke:none"
       inkscape:connector-curvature="0" />
    <path
       inkscape:connector-curvature="0"
       style="opacity:0.64049587;fill:#000000;fill-opacity:1;stroke:none"
       id="path4199"
       d="m 44.744776,6.1269048 a 1.1106291,1.1106291 0 1 0 10e-7,-8.191e-4" />
    <path
       inkscape:connector-curvature="0"
       style="opacity:0.64049587;fill:#060606;fill-opacity:1;stroke:none"
       id="path4201"
       d="m 44.833165,10.544908 a 1.1106291,1.1106291 0 1 0 10e-7,-8.19e-4" />
    <path
       inkscape:connector-curvature="0"
       style="opacity:0.64049587;fill:#090909;fill-opacity:1;stroke:none"
       id="path4203"
       d="m 44.744776,15.297491 a 1.1106291,1.1106291 0 1 0 10e-7,-8.19e-4" />
    <path
       d="m 44.25864,10.544908 a 1.1106291,1.1106291 0 1 0 10e-7,-8.19e-4"
       id="path3815"
       style="opacity:0.89669417;fill:#060606;fill-opacity:1;stroke:none"
       inkscape:connector-curvature="0" />
    <path
       d="m 43.670252,6.1894044 a 1.1106291,1.1106291 0 1 0 1e-6,-8.191e-4"
       id="path3805"
       style="fill:#d4d4d4;fill-opacity:1;stroke:none"
       inkscape:connector-curvature="0" />
    <path
       d="m 44.170252,15.297491 a 1.1106291,1.1106291 0 1 0 1e-6,-8.19e-4"
       id="path3817"
       style="opacity:0.89669417;fill:#090909;fill-opacity:1;stroke:none"
       inkscape:connector-curvature="0" />
    <path
       d="m 43.66489,10.544908 a 1.1106291,1.1106291 0 1 0 10e-7,-8.19e-4"
       id="path3807"
       style="fill:#d4d4d4;fill-opacity:1;stroke:none"
       inkscape:connector-curvature="0" />
    <path
       d="m 43.670252,15.359991 a 1.1106291,1.1106291 0 1 0 1e-6,-8.19e-4"
       id="path3809"
       style="fill:#d4d4d4;fill-opacity:1;stroke:none"
       inkscape:connector-curvature="0" />
    <path
       inkscape:connector-curvature="0"
       style="opacity:0.89669417;fill:#000000;fill-opacity:1;stroke:none"
       id="path4010"
       d="m 50.429136,6.0644044 a 1.1106291,1.1106291 0 1 0 10e-7,-8.191e-4" />
    <path
       inkscape:connector-curvature="0"
       style="opacity:0.89669417;fill:#060606;fill-opacity:1;stroke:none"
       id="path4012"
       d="m 50.517524,10.482408 a 1.1106291,1.1106291 0 1 0 10e-7,-8.19e-4" />
    <path
       inkscape:connector-curvature="0"
       style="opacity:0.89669417;fill:#090909;fill-opacity:1;stroke:none"
       id="path4016"
       d="m 50.429136,15.23499 a 1.1106291,1.1106291 0 1 0 10e-7,-8.19e-4" />
    <path
       d="m 49.929136,6.1269044 a 1.1106291,1.1106291 0 1 0 10e-7,-8.191e-4"
       id="path4014"
       style="fill:#d4d4d4;fill-opacity:1;stroke:none"
       inkscape:connector-curvature="0" />
    <path
       d="m 49.955024,10.513658 a 1.1106291,1.1106291 0 1 0 10e-7,-8.19e-4"
       id="path4018"
       style="fill:#d4d4d4;fill-opacity:1;stroke:none"
       inkscape:connector-curvature="0" />
    <path
       d="m 49.929136,15.297491 a 1.1106291,1.1106291 0 1 0 10e-7,-8.19e-4"
       id="path4022"
       style="fill:#d4d4d4;fill-opacity:1;stroke:none"
       inkscape:connector-curvature="0" />
    <g
       style="font-size:14px;font-style:normal;font-variant:normal;font-weight:bold;font-stretch:normal;line-height:125%;letter-spacing:0px;word-spacing:0px;fill:#000000;fill-opacity:0.84390247;stroke:none;font-family:Sans;-inkscape-font-specification:Sans Bold"
       id="g3827"
       transform="translate(-827.36448,-73.17071)">
      <path
         inkscape:connector-curvature="0"
         style="fill:#000000;fill-opacity:0.84390247"
         id="path3829"
         d="m 844.12109,80.960762 c -0.80208,9e-6 -1.42415,0.296232 -1.86621,0.888672 -0.44206,0.592455 -0.66309,1.426438 -0.66308,2.501953 -1e-5,1.070968 0.22102,1.902672 0.66308,2.495117 0.44206,0.59245 1.06413,0.888674 1.86621,0.888672 0.80664,2e-6 1.43099,-0.296222 1.87305,-0.888672 0.44205,-0.592445 0.66308,-1.424149 0.66309,-2.495117 -10e-6,-1.075515 -0.22104,-1.909498 -0.66309,-2.501953 -0.44206,-0.59244 -1.06641,-0.888663 -1.87305,-0.888672 m 0,-1.907227 c 1.64062,1.1e-5 2.92578,0.469411 3.85547,1.408204 0.92968,0.93881 1.39452,2.235358 1.39453,3.889648 -10e-6,1.649743 -0.46485,2.944013 -1.39453,3.882813 -0.92969,0.938802 -2.21485,1.408202 -3.85547,1.408203 -1.63607,-10e-7 -2.92122,-0.469401 -3.85547,-1.408203 -0.92968,-0.9388 -1.39453,-2.23307 -1.39453,-3.882813 0,-1.65429 0.46485,-2.950838 1.39453,-3.889648 0.93425,-0.938793 2.2194,-1.408193 3.85547,-1.408204" />
    </g>
    <g
       style="font-size:14px;font-style:normal;font-variant:normal;font-weight:bold;font-stretch:normal;line-height:125%;letter-spacing:0px;word-spacing:0px;fill:#b9c7da;fill-opacity:1;stroke:none;font-family:Sans;-inkscape-font-specification:Sans Bold"
       id="text3892"
       transform="translate(-827.36448,-73.91176)">
      <path
         inkscape:connector-curvature="0"
         style="fill:#b9c7da;fill-opacity:1"
         id="path4070"
         d="m 844.12109,80.960762 c -0.80208,9e-6 -1.42415,0.296232 -1.86621,0.888672 -0.44206,0.592455 -0.66309,1.426438 -0.66308,2.501953 -1e-5,1.070968 0.22102,1.902672 0.66308,2.495117 0.44206,0.59245 1.06413,0.888674 1.86621,0.888672 0.80664,2e-6 1.43099,-0.296222 1.87305,-0.888672 0.44205,-0.592445 0.66308,-1.424149 0.66309,-2.495117 -10e-6,-1.075515 -0.22104,-1.909498 -0.66309,-2.501953 -0.44206,-0.59244 -1.06641,-0.888663 -1.87305,-0.888672 m 0,-1.907227 c 1.64062,1.1e-5 2.92578,0.469411 3.85547,1.408204 0.92968,0.93881 1.39452,2.235358 1.39453,3.889648 -10e-6,1.649743 -0.46485,2.944013 -1.39453,3.882813 -0.92969,0.938802 -2.21485,1.408202 -3.85547,1.408203 -1.63607,-10e-7 -2.92122,-0.469401 -3.85547,-1.408203 -0.92968,-0.9388 -1.39453,-2.23307 -1.39453,-3.882813 0,-1.65429 0.46485,-2.950838 1.39453,-3.889648 0.93425,-0.938793 2.2194,-1.408193 3.85547,-1.408204" />
    </g>
  </g>
</svg>
